<?xml version="1.0" standalone="no"?>
<!DOCTYPE svg PUBLIC "-//W3C//DTD SVG 20010904//EN"
 "http://www.w3.org/TR/2001/REC-SVG-20010904/DTD/svg10.dtd">
<svg version="1.0" xmlns="http://www.w3.org/2000/svg"
 width="1080.000000pt" height="1080.000000pt" viewBox="0 0 1080.000000 1080.000000"
 preserveAspectRatio="xMidYMid meet">
<metadata>
Created by potrace 1.14, written by Peter Selinger 2001-2017
</metadata>
<g transform="translate(0.000000,1080.000000) scale(0.100000,-0.100000)"
fill="#000000" stroke="none">
<path d="M5158 9815 c-1 -1 -49 -6 -105 -9 -57 -4 -112 -9 -122 -11 -11 -2
-46 -6 -78 -10 -64 -7 -59 -6 -232 -35 -69 -12 -128 -23 -131 -25 -4 -2 -22
-7 -41 -10 -80 -14 -286 -71 -438 -121 -482 -160 -930 -400 -1331 -714 -69
-54 -137 -109 -151 -122 -14 -13 -48 -43 -75 -67 -115 -102 -311 -301 -394
-400 -25 -29 -52 -62 -62 -73 -102 -119 -246 -320 -353 -491 -83 -132 -251
-451 -304 -577 -177 -420 -271 -778 -335 -1275 -28 -221 -29 -725 -1 -955 4
-35 13 -103 21 -170 3 -19 7 -46 9 -60 3 -14 8 -41 11 -60 9 -57 72 -340 93
-415 194 -708 584 -1384 1104 -1913 144 -147 228 -223 432 -391 96 -79 309
-223 479 -325 137 -82 536 -281 581 -290 6 -2 28 -10 49 -19 70 -31 324 -116
424 -143 53 -14 104 -28 112 -30 23 -6 242 -54 270 -59 28 -5 193 -31 255 -40
22 -3 67 -8 100 -11 33 -3 74 -8 90 -10 17 -3 156 -6 310 -8 256 -3 361 0 530
19 55 5 82 9 155 20 14 2 45 7 70 10 25 3 88 15 140 25 52 11 106 21 120 23
151 27 573 159 725 227 22 10 60 26 85 36 83 34 424 210 520 269 381 234 700
496 992 817 58 64 223 263 263 318 21 30 42 57 46 60 13 11 200 300 251 390
194 338 341 695 439 1068 46 174 41 154 73 327 36 190 43 245 62 460 16 179 9
715 -10 823 -2 9 -7 44 -10 77 -15 124 -55 351 -82 456 -8 35 -21 89 -29 119
-82 346 -289 832 -500 1175 -75 122 -229 348 -259 382 -6 6 -22 26 -36 44 -37
49 -120 149 -156 189 -18 19 -42 46 -54 60 -68 80 -246 252 -392 382 -273 242
-671 497 -1048 670 -258 119 -695 264 -914 302 -16 3 -52 10 -80 15 -104 21
-279 47 -381 57 -38 4 -83 9 -100 11 -36 5 -602 13 -607 8z"/>
</g>
</svg>
